<svg width="32" height="32" viewBox="0 0 32 32" fill="none" xmlns="http://www.w3.org/2000/svg">
  <defs>
    <!-- 클라우드 그라데이션 -->
    <linearGradient id="cloudGradient" x1="0%" y1="0%" x2="100%" y2="100%">
      <stop offset="0%" style="stop-color:#5B9BD5;stop-opacity:1" />
      <stop offset="50%" style="stop-color:#4A90E2;stop-opacity:1" />
      <stop offset="100%" style="stop-color:#357ABD;stop-opacity:1" />
    </linearGradient>
  </defs>
  
  <!-- 클라우드 아이콘 (간단한 버전) -->
  <path d="M8 20C5.79086 20 4 18.2091 4 16C4 13.7909 5.79086 12 8 12C8.5 11 9.5 10.5 10.5 10.5C12 10.5 13 11.5 13.5 13C14.5 12.5 15.5 12.2 16.5 12.2C18.5 12.2 20 13.7 20 15.7C20 17.7 18.5 19.2 16.5 19.2H8V20Z" fill="url(#cloudGradient)"/>
  
  <!-- 작은 클라우드 (깊이감) -->
  <path d="M6 17C5.17157 17 4.5 16.3284 4.5 15.5C4.5 14.6716 5.17157 14 6 14C6.25 13.5 6.75 13.25 7.25 13.25C7.75 13.25 8 13.75 8.25 14.25C8.75 14 9.25 13.9 9.75 13.9C10.5 13.9 11 14.4 11 15.15C11 15.9 10.5 16.4 9.75 16.4H6V17Z" fill="white" opacity="0.3"/>
</svg>

